# xmcd
#
# Track frame offsets:
#	182
#	14620
#	30300
#	41435
#	59860
#	69360
#	78410
#	91165
#	101662
#	115992
#	126495
#	143665
#	158452
#	178072
#	188672
#
# Disc length: 2676 seconds
#
# Revision: 1
# Processed by: cddbd v1.5PL3 Copyright (c) Steve Scherf et al.
# Submitted via: audiograbber 1.83.01
#
DISCID=c40a720f
DTITLE=Mustangove - Mama
DYEAR=1993
DGENRE=Country
TTITLE0=Posledni vandr
TTITLE1=Kapitane muj
TTITLE2=Trempem na par hodin
TTITLE3=Vzpominka na svatojanske proudy
TTITLE4=Aljaska
TTITLE5=Chata pod kaòonem
TTITLE6=Zamykame reku
TTITLE7=Muj konicku
TTITLE8=Prvni ranni caj
TTITLE9=Namornik ma svou holku rad
TTITLE10=Pampelisky
TTITLE11=Trampska smes J. Mottla
TTITLE12=Montgomery
TTITLE13=Buraky
TTITLE14=Reka huci
EXTD=
EXTT0=
EXTT1=
EXTT2=
EXTT3=
EXTT4=
EXTT5=
EXTT6=
EXTT7=
EXTT8=
EXTT9=
EXTT10=
EXTT11=
EXTT12=
EXTT13=
EXTT14=
PLAYORDER=
